<?xml version="1.0" encoding="UTF-8"?>
<!DOCTYPE svg PUBLIC "-//W3C//DTD SVG 1.1//EN" "http://www.w3.org/Graphics/SVG/1.1/DTD/svg11.dtd">
<svg xmlns="http://www.w3.org/2000/svg" version="1.1" width="200px" height="200px" style="shape-rendering:geometricPrecision; text-rendering:geometricPrecision; image-rendering:optimizeQuality; fill-rule:evenodd; clip-rule:evenodd" xmlns:xlink="http://www.w3.org/1999/xlink">
<g><path style="opacity:1" fill="#fefefe" d="M -0.5,-0.5 C 10.8333,-0.5 22.1667,-0.5 33.5,-0.5C 28.804,1.34445 24.1373,3.51112 19.5,6C 17.0038,7.33105 15.0038,9.16438 13.5,11.5C 8.62404,15.5736 4.95738,20.5736 2.5,26.5C 1.34143,28.8546 0.341426,31.1879 -0.5,33.5C -0.5,22.1667 -0.5,10.8333 -0.5,-0.5 Z"/></g>
<g><path style="opacity:1" fill="#e3e3e3" d="M 33.5,-0.5 C 77.1667,-0.5 120.833,-0.5 164.5,-0.5C 169.511,1.34772 174.511,3.51439 179.5,6C 182.331,7.66571 184.664,9.83238 186.5,12.5C 128.904,13.6622 71.2371,13.8289 13.5,13C 14.7383,12.31 14.7383,11.81 13.5,11.5C 15.0038,9.16438 17.0038,7.33105 19.5,6C 24.1373,3.51112 28.804,1.34445 33.5,-0.5 Z"/></g>
<g><path style="opacity:1" fill="#fefefe" d="M 164.5,-0.5 C 176.167,-0.5 187.833,-0.5 199.5,-0.5C 199.5,11.1667 199.5,22.8333 199.5,34.5C 198.651,32.1124 197.651,29.7791 196.5,27.5C 194.728,21.406 191.394,16.406 186.5,12.5C 184.664,9.83238 182.331,7.66571 179.5,6C 174.511,3.51439 169.511,1.34772 164.5,-0.5 Z"/></g>
<g><path style="opacity:1" fill="#dddddd" d="M 13.5,11.5 C 14.7383,11.81 14.7383,12.31 13.5,13C 71.2371,13.8289 128.904,13.6622 186.5,12.5C 191.394,16.406 194.728,21.406 196.5,27.5C 161.905,28.3265 127.238,28.8265 92.5,29C 93.2524,29.6708 93.5858,30.5041 93.5,31.5C 85.0026,25.9544 75.6693,24.1211 65.5,26C 62.049,26.8952 58.7157,28.0618 55.5,29.5C 37.6726,29.1625 20.0059,28.1625 2.5,26.5C 4.95738,20.5736 8.62404,15.5736 13.5,11.5 Z"/></g>
<g><path style="opacity:1" fill="#0b067c" d="M 93.5,31.5 C 97.9649,35.3075 101.298,39.9742 103.5,45.5C 104.299,48.4299 104.632,51.4299 104.5,54.5C 100.833,54.5 97.1667,54.5 93.5,54.5C 91.6179,39.1317 82.9512,32.6317 67.5,35C 58.6745,38.6568 53.3412,45.1568 51.5,54.5C 50.1157,65.0433 50.2824,75.71 52,86.5C 57.2815,103.056 68.1149,108.223 84.5,102C 89.6598,98.1922 92.6598,93.0256 93.5,86.5C 111.488,85.5005 129.488,85.1671 147.5,85.5C 147.5,88.5 147.5,91.5 147.5,94.5C 133.833,94.5 120.167,94.5 106.5,94.5C 105.834,99.1547 105.501,103.988 105.5,109C 105.506,114.216 106.173,119.049 107.5,123.5C 118.833,123.5 130.167,123.5 141.5,123.5C 141.5,126.833 141.5,130.167 141.5,133.5C 129.833,133.5 118.167,133.5 106.5,133.5C 105.505,145.989 105.171,158.656 105.5,171.5C 101.629,171.815 97.9619,171.482 94.5,170.5C 94.833,149.489 94.4997,128.489 93.5,107.5C 92.8933,107.624 92.56,107.957 92.5,108.5C 79.3293,115.224 66.3293,115.058 53.5,108C 50.6007,105.271 47.934,102.438 45.5,99.5C 42.3413,93.0195 40.008,86.3528 38.5,79.5C 36.3106,64.3972 39.1439,50.3972 47,37.5C 49.7291,34.6007 52.5624,31.934 55.5,29.5C 58.7157,28.0618 62.049,26.8952 65.5,26C 75.6693,24.1211 85.0026,25.9544 93.5,31.5 Z"/></g>
<g><path style="opacity:1" fill="#d7d7d7" d="M 196.5,27.5 C 197.651,29.7791 198.651,32.1124 199.5,34.5C 199.5,49.5 199.5,64.5 199.5,79.5C 198.539,77.7354 198.205,75.7354 198.5,73.5C 198.5,67.8333 198.5,62.1667 198.5,56.5C 199.133,48.6133 198.8,44.28 197.5,43.5C 165.943,42.8525 134.61,43.5192 103.5,45.5C 101.298,39.9742 97.9649,35.3075 93.5,31.5C 93.5858,30.5041 93.2524,29.6708 92.5,29C 127.238,28.8265 161.905,28.3265 196.5,27.5 Z"/></g>
<g><path style="opacity:1" fill="#d0d0d1" d="M 103.5,45.5 C 134.61,43.5192 165.943,42.8525 197.5,43.5C 198.8,44.28 199.133,48.6133 198.5,56.5C 160.387,58.4844 122.054,59.1511 83.5,58.5C 83.6495,59.552 83.4828,60.552 83,61.5C 82.7679,60.2625 82.2679,59.2625 81.5,58.5C 80.5722,54.574 78.2389,51.9073 74.5,50.5C 74.5,48.8333 74.5,47.1667 74.5,45.5C 72.901,45.2322 71.5676,45.5655 70.5,46.5C 70.7589,49.4797 69.4256,51.313 66.5,52C 64.8588,53.129 63.8588,54.629 63.5,56.5C 62.6981,57.9516 62.1981,59.6183 62,61.5C 61.6667,59.8333 61.3333,58.1667 61,56.5C 58.8938,58.291 56.3938,58.9577 53.5,58.5C 53.6495,57.448 53.4828,56.448 53,55.5C 51.9924,60.5409 51.4924,60.2076 51.5,54.5C 53.3412,45.1568 58.6745,38.6568 67.5,35C 82.9512,32.6317 91.6179,39.1317 93.5,54.5C 97.1667,54.5 100.833,54.5 104.5,54.5C 104.632,51.4299 104.299,48.4299 103.5,45.5 Z"/></g>
<g><path style="opacity:1" fill="#d3d3d3" d="M 2.5,26.5 C 20.0059,28.1625 37.6726,29.1625 55.5,29.5C 52.5624,31.934 49.7291,34.6007 47,37.5C 39.1439,50.3972 36.3106,64.3972 38.5,79.5C 37.6522,72.5821 37.1522,64.9154 37,56.5C 24.7499,58.4684 12.2499,59.1351 -0.5,58.5C -0.5,50.1667 -0.5,41.8333 -0.5,33.5C 0.341426,31.1879 1.34143,28.8546 2.5,26.5 Z"/></g>
<g><path style="opacity:1" fill="#7494c1" d="M 70.5,46.5 C 71.5676,45.5655 72.901,45.2322 74.5,45.5C 74.5,47.1667 74.5,48.8333 74.5,50.5C 73.5655,49.4324 73.2322,48.099 73.5,46.5C 72.5,46.5 71.5,46.5 70.5,46.5 Z"/></g>
<g><path style="opacity:1" fill="#cacacb" d="M 81.5,58.5 C 82.2679,59.2625 82.7679,60.2625 83,61.5C 83.4828,60.552 83.6495,59.552 83.5,58.5C 122.054,59.1511 160.387,58.4844 198.5,56.5C 198.5,62.1667 198.5,67.8333 198.5,73.5C 197.732,74.2625 197.232,75.2625 197,76.5C 160.299,76.1325 123.466,76.1325 86.5,76.5C 85.0295,75.6195 84.1962,74.2861 84,72.5C 83.6667,73.8333 83.3333,75.1667 83,76.5C 82.79,74.9419 82.29,73.6085 81.5,72.5C 81.2488,70.8297 80.5822,69.3297 79.5,68C 75.5633,66.3559 71.7299,64.5226 68,62.5C 65.8333,55.3333 68.3333,52.8333 75.5,55C 77.1554,56.4443 77.822,58.2776 77.5,60.5C 79.4832,60.8432 80.8166,60.1765 81.5,58.5 Z"/></g>
<g><path style="opacity:1" fill="#144eae" d="M 70.5,46.5 C 71.5,46.5 72.5,46.5 73.5,46.5C 73.2322,48.099 73.5655,49.4324 74.5,50.5C 78.2389,51.9073 80.5722,54.574 81.5,58.5C 80.8166,60.1765 79.4832,60.8432 77.5,60.5C 77.822,58.2776 77.1554,56.4443 75.5,55C 68.3333,52.8333 65.8333,55.3333 68,62.5C 71.7299,64.5226 75.5633,66.3559 79.5,68C 80.5822,69.3297 81.2488,70.8297 81.5,72.5C 82.1719,78.4955 79.5052,81.8288 73.5,82.5C 73.5,83.8333 73.5,85.1667 73.5,86.5C 72.5,86.5 71.5,86.5 70.5,86.5C 70.5,85.1667 70.5,83.8333 70.5,82.5C 65.0249,82.0237 62.3582,79.0237 62.5,73.5C 63.5,73.5 64.5,73.5 65.5,73.5C 67.0637,79.5666 70.7304,81.0666 76.5,78C 78.0135,75.0844 77.6801,72.4177 75.5,70C 67.305,68.9833 63.305,64.4833 63.5,56.5C 63.8588,54.629 64.8588,53.129 66.5,52C 69.4256,51.313 70.7589,49.4797 70.5,46.5 Z"/></g>
<g><path style="opacity:1" fill="#c4c4c4" d="M 38.5,79.5 C 40.008,86.3528 42.3413,93.0195 45.5,99.5C 45.5858,100.496 45.2524,101.329 44.5,102C 29.5037,102.5 14.5037,102.667 -0.5,102.5C -0.5,87.8333 -0.5,73.1667 -0.5,58.5C 12.2499,59.1351 24.7499,58.4684 37,56.5C 37.1522,64.9154 37.6522,72.5821 38.5,79.5 Z"/></g>
<g><path style="opacity:1" fill="#c0c0c2" d="M 51.5,54.5 C 51.4924,60.2076 51.9924,60.5409 53,55.5C 53.4828,56.448 53.6495,57.448 53.5,58.5C 56.3938,58.9577 58.8938,58.291 61,56.5C 61.3333,58.1667 61.6667,59.8333 62,61.5C 62.1981,59.6183 62.6981,57.9516 63.5,56.5C 63.305,64.4833 67.305,68.9833 75.5,70C 77.6801,72.4177 78.0135,75.0844 76.5,78C 70.7304,81.0666 67.0637,79.5666 65.5,73.5C 64.5,73.5 63.5,73.5 62.5,73.5C 62.3582,79.0237 65.0249,82.0237 70.5,82.5C 70.5,83.8333 70.5,85.1667 70.5,86.5C 71.5,86.5 72.5,86.5 73.5,86.5C 73.5,85.1667 73.5,83.8333 73.5,82.5C 79.5052,81.8288 82.1719,78.4955 81.5,72.5C 82.29,73.6085 82.79,74.9419 83,76.5C 83.3333,75.1667 83.6667,73.8333 84,72.5C 84.1962,74.2861 85.0295,75.6195 86.5,76.5C 123.466,76.1325 160.299,76.1325 197,76.5C 197.232,75.2625 197.732,74.2625 198.5,73.5C 198.205,75.7354 198.539,77.7354 199.5,79.5C 199.5,91.1667 199.5,102.833 199.5,114.5C 198.683,112.031 198.183,109.365 198,106.5C 188.562,107.82 178.896,108.487 169,108.5C 159.259,108.494 149.592,108.161 140,107.5C 139.667,108.167 139.333,108.833 139,109.5C 138.722,108.584 138.222,107.918 137.5,107.5C 136.608,105.286 134.942,104.286 132.5,104.5C 130.645,104.34 129.312,105.007 128.5,106.5C 127.71,107.609 127.21,108.942 127,110.5C 126.667,109.167 126.333,107.833 126,106.5C 125.31,107.738 124.81,107.738 124.5,106.5C 125.109,103.122 123.776,101.122 120.5,100.5C 118.052,99.5269 115.385,99.1936 112.5,99.5C 112.5,102.5 112.5,105.5 112.5,108.5C 110.888,107.548 109.388,107.214 108,107.5C 107.667,109.167 107.333,110.833 107,112.5C 106.501,106.509 106.334,100.509 106.5,94.5C 120.167,94.5 133.833,94.5 147.5,94.5C 147.5,91.5 147.5,88.5 147.5,85.5C 129.488,85.1671 111.488,85.5005 93.5,86.5C 92.6598,93.0256 89.6598,98.1922 84.5,102C 68.1149,108.223 57.2815,103.056 52,86.5C 50.2824,75.71 50.1157,65.0433 51.5,54.5 Z"/></g>
<g><path style="opacity:1" fill="#4871b0" d="M 120.5,100.5 C 118.167,100.5 115.833,100.5 113.5,100.5C 113.5,106.167 113.5,111.833 113.5,117.5C 116.167,117.5 118.833,117.5 121.5,117.5C 118.713,118.477 115.713,118.81 112.5,118.5C 112.5,115.167 112.5,111.833 112.5,108.5C 112.5,105.5 112.5,102.5 112.5,99.5C 115.385,99.1936 118.052,99.5269 120.5,100.5 Z"/></g>
<g><path style="opacity:1" fill="#2b55ae" d="M 120.5,100.5 C 123.776,101.122 125.109,103.122 124.5,106.5C 122.148,107.543 121.981,108.876 124,110.5C 125.087,113.614 124.254,115.947 121.5,117.5C 118.833,117.5 116.167,117.5 113.5,117.5C 113.5,111.833 113.5,106.167 113.5,100.5C 115.833,100.5 118.167,100.5 120.5,100.5 Z"/></g>
<g><path style="opacity:1" fill="#b6b6b8" d="M 115.5,102.5 C 117.5,102.5 119.5,102.5 121.5,102.5C 121.5,104.167 121.5,105.833 121.5,107.5C 119.5,107.5 117.5,107.5 115.5,107.5C 115.5,105.833 115.5,104.167 115.5,102.5 Z"/></g>
<g><path style="opacity:1" fill="#2352ad" d="M 137.5,107.5 C 137.44,108.043 137.107,108.376 136.5,108.5C 134.827,106.914 132.827,106.247 130.5,106.5C 130.433,109.766 132.099,111.266 135.5,111C 138.589,114.813 137.755,117.313 133,118.5C 129.309,118.332 127.809,116.666 128.5,113.5C 129.631,114.751 130.964,115.751 132.5,116.5C 134,116.547 135,115.881 135.5,114.5C 133.573,112.898 131.406,111.565 129,110.5C 128.51,109.207 128.343,107.873 128.5,106.5C 129.312,105.007 130.645,104.34 132.5,104.5C 134.942,104.286 136.608,105.286 137.5,107.5 Z"/></g>
<g><path style="opacity:1" fill="#acadae" d="M 106.5,94.5 C 106.334,100.509 106.501,106.509 107,112.5C 107.333,110.833 107.667,109.167 108,107.5C 109.388,107.214 110.888,107.548 112.5,108.5C 112.5,111.833 112.5,115.167 112.5,118.5C 115.713,118.81 118.713,118.477 121.5,117.5C 124.254,115.947 125.087,113.614 124,110.5C 121.981,108.876 122.148,107.543 124.5,106.5C 124.81,107.738 125.31,107.738 126,106.5C 126.333,107.833 126.667,109.167 127,110.5C 127.21,108.942 127.71,107.609 128.5,106.5C 128.343,107.873 128.51,109.207 129,110.5C 131.406,111.565 133.573,112.898 135.5,114.5C 135,115.881 134,116.547 132.5,116.5C 130.964,115.751 129.631,114.751 128.5,113.5C 127.809,116.666 129.309,118.332 133,118.5C 137.755,117.313 138.589,114.813 135.5,111C 132.099,111.266 130.433,109.766 130.5,106.5C 132.827,106.247 134.827,106.914 136.5,108.5C 137.107,108.376 137.44,108.043 137.5,107.5C 138.222,107.918 138.722,108.584 139,109.5C 139.333,108.833 139.667,108.167 140,107.5C 149.592,108.161 159.259,108.494 169,108.5C 178.896,108.487 188.562,107.82 198,106.5C 198.183,109.365 198.683,112.031 199.5,114.5C 199.5,119.5 199.5,124.5 199.5,129.5C 198.679,126.359 198.179,123.025 198,119.5C 197.667,120.5 197.333,121.5 197,122.5C 167.333,121.833 137.667,121.167 108,120.5C 107.517,121.448 107.351,122.448 107.5,123.5C 106.173,119.049 105.506,114.216 105.5,109C 105.501,103.988 105.834,99.1547 106.5,94.5 Z"/></g>
<g><path style="opacity:1" fill="#adaeb0" d="M 115.5,109.5 C 117.527,109.338 119.527,109.505 121.5,110C 122.833,111.667 122.833,113.333 121.5,115C 119.527,115.495 117.527,115.662 115.5,115.5C 115.5,113.5 115.5,111.5 115.5,109.5 Z"/></g>
<g><path style="opacity:1" fill="#aeaeae" d="M 45.5,99.5 C 47.934,102.438 50.6007,105.271 53.5,108C 66.3293,115.058 79.3293,115.224 92.5,108.5C 93.4916,115.648 93.825,122.981 93.5,130.5C 92.6773,127.023 92.1773,123.356 92,119.5C 61.3906,121.488 30.5573,122.155 -0.5,121.5C -0.5,115.167 -0.5,108.833 -0.5,102.5C 14.5037,102.667 29.5037,102.5 44.5,102C 45.2524,101.329 45.5858,100.496 45.5,99.5 Z"/></g>
<g><path style="opacity:1" fill="#a4a4a4" d="M 199.5,129.5 C 199.5,140.833 199.5,152.167 199.5,163.5C 199.167,163.5 198.833,163.5 198.5,163.5C 198.5,162.5 198.5,161.5 198.5,160.5C 198.5,155.167 198.5,149.833 198.5,144.5C 198.969,139.014 198.636,135.681 197.5,134.5C 179.497,134.667 161.497,134.5 143.5,134C 142.865,130.397 142.198,126.897 141.5,123.5C 130.167,123.5 118.833,123.5 107.5,123.5C 107.351,122.448 107.517,121.448 108,120.5C 137.667,121.167 167.333,121.833 197,122.5C 197.333,121.5 197.667,120.5 198,119.5C 198.179,123.025 198.679,126.359 199.5,129.5 Z"/></g>
<g><path style="opacity:1" fill="#a1a1a1" d="M 93.5,130.5 C 93.5,134.5 93.5,138.5 93.5,142.5C 92.6787,139.359 92.1787,136.025 92,132.5C 77.2208,133.825 62.2208,134.492 47,134.5C 30.8182,134.477 14.9849,134.144 -0.5,133.5C -0.5,129.5 -0.5,125.5 -0.5,121.5C 30.5573,122.155 61.3906,121.488 92,119.5C 92.1773,123.356 92.6773,127.023 93.5,130.5 Z"/></g>
<g><path style="opacity:1" fill="#69698d" d="M 92.5,108.5 C 92.56,107.957 92.8933,107.624 93.5,107.5C 94.4997,128.489 94.833,149.489 94.5,170.5C 94.1667,170.5 93.8333,170.5 93.5,170.5C 93.5,165.167 93.5,159.833 93.5,154.5C 93.5,150.5 93.5,146.5 93.5,142.5C 93.5,138.5 93.5,134.5 93.5,130.5C 93.825,122.981 93.4916,115.648 92.5,108.5 Z"/></g>
<g><path style="opacity:1" fill="#949494" d="M 141.5,123.5 C 142.198,126.897 142.865,130.397 143.5,134C 161.497,134.5 179.497,134.667 197.5,134.5C 198.636,135.681 198.969,139.014 198.5,144.5C 197.596,145.209 197.263,146.209 197.5,147.5C 167.593,147.829 137.76,147.495 108,146.5C 107.79,148.058 107.29,149.391 106.5,150.5C 106.5,144.833 106.5,139.167 106.5,133.5C 118.167,133.5 129.833,133.5 141.5,133.5C 141.5,130.167 141.5,126.833 141.5,123.5 Z"/></g>
<g><path style="opacity:1" fill="#949494" d="M 93.5,142.5 C 93.5,146.5 93.5,150.5 93.5,154.5C 92.6805,151.695 92.1805,148.695 92,145.5C 77.2208,146.825 62.2208,147.492 47,147.5C 30.8182,147.477 14.9849,147.144 -0.5,146.5C -0.5,142.167 -0.5,137.833 -0.5,133.5C 14.9849,134.144 30.8182,134.477 47,134.5C 62.2208,134.492 77.2208,133.825 92,132.5C 92.1787,136.025 92.6787,139.359 93.5,142.5 Z"/></g>
<g><path style="opacity:1" fill="#888888" d="M 198.5,144.5 C 198.5,149.833 198.5,155.167 198.5,160.5C 168.303,159.845 138.137,159.178 108,158.5C 107.667,159.833 107.333,161.167 107,162.5C 106.501,158.514 106.334,154.514 106.5,150.5C 107.29,149.391 107.79,148.058 108,146.5C 137.76,147.495 167.593,147.829 197.5,147.5C 197.263,146.209 197.596,145.209 198.5,144.5 Z"/></g>
<g><path style="opacity:1" fill="#888888" d="M 93.5,154.5 C 93.5,159.833 93.5,165.167 93.5,170.5C 92.6753,166.353 92.1753,162.019 92,157.5C 61.7168,159.157 31.2168,160.157 0.5,160.5C 1.39276,163.084 1.72609,165.751 1.5,168.5C 0.833333,167.167 0.166667,165.833 -0.5,164.5C -0.5,158.5 -0.5,152.5 -0.5,146.5C 14.9849,147.144 30.8182,147.477 47,147.5C 62.2208,147.492 77.2208,146.825 92,145.5C 92.1805,148.695 92.6805,151.695 93.5,154.5 Z"/></g>
<g><path style="opacity:1" fill="#fcfcfc" d="M 198.5,163.5 C 198.833,163.5 199.167,163.5 199.5,163.5C 199.5,175.5 199.5,187.5 199.5,199.5C 187.5,199.5 175.5,199.5 163.5,199.5C 172.985,197.423 180.985,192.756 187.5,185.5C 191.336,182.322 194.002,178.322 195.5,173.5C 197.605,170.592 198.605,167.258 198.5,163.5 Z"/></g>
<g><path style="opacity:1" fill="#fbfbfb" d="M -0.5,164.5 C 0.166667,165.833 0.833333,167.167 1.5,168.5C 1.79586,170.403 2.46253,172.07 3.5,173.5C 4.65712,177.976 6.99046,181.642 10.5,184.5C 16.6969,191.764 24.3636,196.764 33.5,199.5C 22.1667,199.5 10.8333,199.5 -0.5,199.5C -0.5,187.833 -0.5,176.167 -0.5,164.5 Z"/></g>
<g><path style="opacity:1" fill="#7b7b7b" d="M 106.5,133.5 C 106.5,139.167 106.5,144.833 106.5,150.5C 106.334,154.514 106.501,158.514 107,162.5C 107.333,161.167 107.667,159.833 108,158.5C 138.137,159.178 168.303,159.845 198.5,160.5C 198.5,161.5 198.5,162.5 198.5,163.5C 198.605,167.258 197.605,170.592 195.5,173.5C 131.364,172.193 67.3637,172.193 3.5,173.5C 2.46253,172.07 1.79586,170.403 1.5,168.5C 1.72609,165.751 1.39276,163.084 0.5,160.5C 31.2168,160.157 61.7168,159.157 92,157.5C 92.1753,162.019 92.6753,166.353 93.5,170.5C 93.8333,170.5 94.1667,170.5 94.5,170.5C 97.9619,171.482 101.629,171.815 105.5,171.5C 105.171,158.656 105.505,145.989 106.5,133.5 Z"/></g>
<g><path style="opacity:1" fill="#6f6f6f" d="M 195.5,173.5 C 194.002,178.322 191.336,182.322 187.5,185.5C 186.671,184.668 185.838,185.001 185,186.5C 128,185.833 71,185.167 14,184.5C 12.8525,185.458 11.8525,185.125 11,183.5C 10.6012,183.728 10.4346,184.062 10.5,184.5C 6.99046,181.642 4.65712,177.976 3.5,173.5C 67.3637,172.193 131.364,172.193 195.5,173.5 Z"/></g>
<g><path style="opacity:1" fill="#636363" d="M 187.5,185.5 C 180.985,192.756 172.985,197.423 163.5,199.5C 120.167,199.5 76.8333,199.5 33.5,199.5C 24.3636,196.764 16.6969,191.764 10.5,184.5C 10.4346,184.062 10.6012,183.728 11,183.5C 11.8525,185.125 12.8525,185.458 14,184.5C 71,185.167 128,185.833 185,186.5C 185.838,185.001 186.671,184.668 187.5,185.5 Z"/></g>
</svg>
